REM MD5 5fb5735f448837eaa250c16643cebf53
FILE "DemoDemo PlayStation Vol. 16 (Japan).bin" BINARY
  TRACK 01 MODE2/2352
    INDEX 01 00:00:00
  TRACK 02 AUDIO
    INDEX 00 37:33:15
    INDEX 01 37:35:15
  TRACK 03 AUDIO
    INDEX 00 38:27:45
    INDEX 01 38:29:45
REM LEADOUT 41:39:62
